# xmcd CD database file
#
# Track frame offsets:
#	150
#	17311
#	43431
#	68612
#	86214
#	103723
#	130560
#	140077
#	159037
#	195020
#	211757
#	227361
#	243159
#	259047
#	280543
#	292483
#	303767
#
# Disc length: 4447 seconds
#
# Revision: 0
# Processed by: cddbd v1.5.2PL0 Copyright (c) Steve Scherf et al.
# Submitted via: CDex 1.51
#
DISCID=da115d11
DTITLE=Various Artist - Swiss Vibes - From Jazz To Pop
DYEAR=2009
DGENRE=Jazz
TTITLE0=Evelinn Trouble - We'll Finally Feel The Same
TTITLE1=Colin Vallon Trio - Mardi
TTITLE2=Secondo - Wait For It To Come
TTITLE3=Lucien Dubuis Trio (ft Marc Ribot) - Ultime Cosmos
TTITLE4=Elina Duni - Yiati Den M'agapas
TTITLE5=Filewile - Babylon Beach
TTITLE6=Larytta - Money For Pizza
TTITLE7=Erika Stucky - All I Really Want To Do
TTITLE8=Nik Bärtsch's Ronin - Module 39_8
TTITLE9=Dog Almond - Run Away
TTITLE10=Heidi Happy - O-o-oh
TTITLE11=Sophie Hunger - Shape
TTITLE12=Jérémie Kisling - Antimatière
TTITLE13=Grand Pianoramax - Blue Gold
TTITLE14=Lole - High And Low
TTITLE15=Imperial Tiger Orchestra - Aynotche Terabu
TTITLE16=Erik Truffaz - Yay !
EXTD=YEAR: 2009
EXTT0=
EXTT1=
EXTT2=
EXTT3=
EXTT4=
EXTT5=
EXTT6=
EXTT7=
EXTT8=
EXTT9=
EXTT10=
EXTT11=
EXTT12=
EXTT13=
EXTT14=
EXTT15=
EXTT16=
PLAYORDER=
